<svg width="70" height="66" viewBox="0 0 70 66" fill="none" xmlns="http://www.w3.org/2000/svg">
<rect width="70" height="66" rx="12" fill="#F4F4F4"/>
<path d="M20.5825 17.585L21.695 12.02C21.9216 10.8861 22.5343 9.86582 23.4286 9.13285C24.3229 8.39988 25.4437 7.99954 26.6 8H43.4C44.5563 7.99954 45.6771 8.39988 46.5714 9.13285C47.4657 9.86582 48.0784 10.8861 48.305 12.02L49.4175 17.585C49.5921 18.457 50.0107 19.2615 50.6245 19.905C51.2383 20.5484 52.0222 21.0045 52.885 21.22C54.9175 21.7285 56.7217 22.9017 58.0109 24.5532C59.3001 26.2048 60.0002 28.2399 60 30.335V48C60 50.6522 58.9464 53.1957 57.0711 55.0711C55.1957 56.9464 52.6522 58 50 58H20C17.3478 58 14.8043 56.9464 12.9289 55.0711C11.0536 53.1957 10 50.6522 10 48V30.335C9.99981 28.2399 10.6999 26.2048 11.9891 24.5532C13.2783 22.9017 15.0825 21.7285 17.115 21.22C17.9778 21.0045 18.7617 20.5484 19.3755 19.905C19.9893 19.2615 20.4079 18.457 20.5825 17.585V17.585Z" stroke="#202020" stroke-width="2" stroke-linecap="round" stroke-linejoin="round"/>
<path d="M35 48C40.5228 48 45 43.5228 45 38C45 32.4772 40.5228 28 35 28C29.4772 28 25 32.4772 25 38C25 43.5228 29.4772 48 35 48Z" stroke="#202020" stroke-width="2" stroke-linecap="round" stroke-linejoin="round"/>
<path d="M32.5 18H37.5" stroke="#202020" stroke-width="2" stroke-linecap="round" stroke-linejoin="round"/>
</svg>
